{
    "accessors": {
        "accessor_16": {
            "bufferView": "bufferView_22",
            "byteOffset": 0,
            "byteStride": 0,
            "componentType": 5123,
            "count": 210,
            "type": "SCALAR"
        },
        "accessor_18": {
            "bufferView": "bufferView_23",
            "byteOffset": 0,
            "byteStride": 12,
            "componentType": 5126,
            "count": 168,
            "max": [
                23.0584,
                10.7535,
                62.7
            ],
            "min": [
                -25.0481,
                -12.1273,
                0
            ],
            "type": "VEC3"
        },
        "accessor_20": {
            "bufferView": "bufferView_23",
            "byteOffset": 2016,
            "byteStride": 12,
            "componentType": 5126,
            "count": 168,
            "max": [
                0.997459,
                0.995112,
                1
            ],
            "min": [
                -0.998999,
                -0.997786,
                0
            ],
            "type": "VEC3"
        }
    },
    "animations": {},
    "asset": {
        "generator": "collada2gltf@cf6371beb0bdc18ba603378d5e40c966da53d385",
        "premultipliedAlpha": true,
        "profile": {
            "api": "WebGL",
            "version": "1.0.2"
        },
        "version": "1.0"
    },
    "bufferViews": {
        "bufferView_22": {
            "buffer": "\\CesiumGltf\\DAE\\temp",
            "byteLength": 420,
            "byteOffset": 0,
            "target": 34963
        },
        "bufferView_23": {
            "buffer": "\\CesiumGltf\\DAE\\temp",
            "byteLength": 4032,
            "byteOffset": 420,
            "target": 34962
        }
    },
    "buffers": {
        "\\CesiumGltf\\DAE\\temp": {
            "byteLength": 4452,
            "type": "arraybuffer",
            "uri": "data:application/octet-stream;base64,"
        }
    },
    "materials": {
        "_1_-_Default": {
            "name": "_1_-_Default",
            "technique": "technique0",
            "values": {
                "ambient": [
                    0.588235,
                    0.588235,
                    0.588235,
                    1
                ],
                "diffuse": [
                    0.588235,
                    0.588235,
                    0.588235,
                    1
                ],
                "emission": [
                    0,
                    0,
                    0,
                    1
                ],
                "shininess": 10,
                "specular": [
                    0,
                    0,
                    0,
                    1
                ]
            }
        }
    },
    "meshes": {
        "geom-_1": {
            "name": "_1",
            "primitives": [
                {
                    "attributes": {
                        "NORMAL": "accessor_20",
                        "POSITION": "accessor_18"
                    },
                    "indices": "accessor_16",
                    "material": "_1_-_Default",
                    "mode": 4
                }
            ]
        }
    },
    "nodes": {
        "node-_1": {
            "children": [],
            "matrix": [
                0.787445,
                0,
                0,
                0,
                0,
                0.787445,
                0,
                0,
                0,
                0,
                1,
                0,
                253.889,
                223.397,
                0,
                1
            ],
            "meshes": [
                "geom-_1"
            ],
            "name": "_1"
        },
        "node_0": {
            "children": [],
            "matrix": [
                1,
                0,
                0,
                0,
                0,
                1,
                0,
                0,
                0,
                0,
                1,
                0,
                0,
                0,
                0,
                1
            ],
            "name": "EnvironmentAmbientLight"
        },
        "node_2": {
            "children": [
                "node_0",
                "node-_1"
            ],
            "matrix": [
                1,
                0,
                0,
                0,
                0,
                0,
                -1,
                0,
                0,
                1,
                0,
                0,
                0,
                0,
                0,
                1
            ],
            "name": "Y_UP_Transform"
        }
    },
    "programs": {
        "program_0": {
            "attributes": [
                "a_normal",
                "a_position"
            ],
            "fragmentShader": "\\CesiumGltf\\DAE\\temp0FS",
            "vertexShader": "\\CesiumGltf\\DAE\\temp0VS"
        }
    },
    "scene": "defaultScene",
    "scenes": {
        "defaultScene": {
            "nodes": [
                "node_2"
            ]
        }
    },
    "shaders": {
        "\\CesiumGltf\\DAE\\temp0FS": {
            "type": 35632,
            "uri": "data:text/plain;base64,"
        },
        "\\CesiumGltf\\DAE\\temp0VS": {
            "type": 35633,
            "uri": "data:text/plain;base64,"
        }
    },
    "skins": {},
    "techniques": {
        "technique0": {
            "attributes": {
                "a_normal": "normal",
                "a_position": "position"
            },
            "parameters": {
                "ambient": {
                    "type": 35666
                },
                "diffuse": {
                    "type": 35666
                },
                "emission": {
                    "type": 35666
                },
                "modelViewMatrix": {
                    "semantic": "MODELVIEW",
                    "type": 35676
                },
                "normal": {
                    "semantic": "NORMAL",
                    "type": 35665
                },
                "normalMatrix": {
                    "semantic": "MODELVIEWINVERSETRANSPOSE",
                    "type": 35675
                },
                "position": {
                    "semantic": "POSITION",
                    "type": 35665
                },
                "projectionMatrix": {
                    "semantic": "PROJECTION",
                    "type": 35676
                },
                "shininess": {
                    "type": 5126
                },
                "specular": {
                    "type": 35666
                }
            },
            "program": "program_0",
            "states": {
                "enable": [
                    2929,
                    2884
                ]
            },
            "uniforms": {
                "u_ambient": "ambient",
                "u_diffuse": "diffuse",
                "u_emission": "emission",
                "u_modelViewMatrix": "modelViewMatrix",
                "u_normalMatrix": "normalMatrix",
                "u_projectionMatrix": "projectionMatrix",
                "u_shininess": "shininess",
                "u_specular": "specular"
            }
        }
    }
}